<svg width="104" height="36" viewBox="0 0 104 36" fill="none" xmlns="http://www.w3.org/2000/svg">
<rect width="36" height="36" rx="9.14062" fill="#173300"/>
<path d="M20.2609 9.54297L15.9414 10.6396V16.3399H20.2609V9.54297Z" fill="#9EE86F"/>
<path d="M15.9399 17.7732V20.6677L21.6855 22.1077V23.4403H14.5148V11.0039L10.1953 12.1005V27.7748H13.6504H14.5148H21.6855H26.005V23.4403V22.1077V17.7732H21.6855H15.9399Z" fill="#9EE86F"/>
<path d="M21.6875 9.18258V16.3407H26.007V8.08594L21.6875 9.18258Z" fill="#9EE86F"/>
<path d="M50.7021 23.6688C47.2428 23.6688 45.1165 21.3737 45.1165 17.8469C45.1165 14.32 47.5128 12.025 51.394 12.025C54.9378 12.025 57.1821 13.6787 57.1821 16.3956V16.5306H54.364V16.3956C54.364 15.0794 53.5034 14.455 51.3265 14.455C48.7615 14.455 47.7996 15.3325 47.7996 17.8469C47.7996 20.3612 48.7278 21.2387 51.2084 21.2387C53.8071 21.2387 54.6003 20.8337 54.6678 19.3994H50.8371V17.5262H57.199V23.5H54.8534V21.07H54.7184C54.3303 22.555 53.149 23.6688 50.7021 23.6688ZM61.0366 23.6688C59.2141 23.6688 58.1173 22.825 58.1173 21.4075C58.1173 20.1587 59.0454 19.3825 60.851 19.1969L64.4791 18.8256V18.505C64.4791 17.4081 63.9898 17.1044 62.6398 17.1044C61.3573 17.1044 60.8341 17.4419 60.8341 18.4037V18.4712H58.286V18.4206C58.286 16.3281 60.041 14.8769 62.8254 14.8769C65.6435 14.8769 66.9766 16.3281 66.9766 18.5388V23.5H64.6141V21.5594H64.4791C64.091 22.8756 62.9098 23.6688 61.0366 23.6688ZM60.6654 21.2387C60.6654 21.6944 61.0198 21.88 61.7623 21.88C63.4835 21.88 64.4116 21.475 64.4791 20.2769L61.5429 20.6144C60.9354 20.665 60.6654 20.8337 60.6654 21.2387ZM70.7909 26.3688H68.2597V15.0456H70.6053V17.3575H70.774C71.0778 15.7375 72.1578 14.8769 74.149 14.8769C76.7478 14.8769 78.199 16.5981 78.199 19.2812C78.199 21.9644 76.7815 23.6688 74.2334 23.6688C72.2759 23.6688 71.1959 22.7069 70.909 21.2219H70.7909V26.3688ZM70.7909 19.3994C70.7909 20.8506 71.6684 21.3569 73.2547 21.3569C74.8747 21.3569 75.634 20.8169 75.634 19.2812C75.634 17.7287 74.8747 17.2056 73.2715 17.2056C71.6347 17.2056 70.7909 17.7625 70.7909 19.2644V19.3994ZM81.7827 14.185H79.2515V12.1937H81.7827V14.185ZM78.374 26.3688H77.9521V24.4788H78.4077C78.9646 24.4788 79.2515 24.2594 79.2515 23.6688V15.0456H81.7827V23.2637C81.7827 25.66 80.4834 26.3688 78.374 26.3688ZM84.7606 26.3688H83.3769V24.0738H85.4525C86.0769 24.0738 86.3469 23.905 86.5156 23.5338L82.3813 15.0456H85.25L87.0388 18.91L87.7475 20.9012H87.9163L88.5913 18.8931L90.1944 15.0456H93.0125L88.8275 24.1075C88.0175 25.8794 86.8869 26.3688 84.7606 26.3688ZM96.1528 23.5H93.6216V12.1937H96.1528V18.1844H98.0766L100.237 15.0456H103.24L100.152 19.1294L103.19 23.5H100.203L98.0935 20.4456H96.1528V23.5Z" fill="#173300"/>
</svg>
