<svg width="89" height="67" viewBox="0 0 89 67" fill="none" xmlns="http://www.w3.org/2000/svg">
<path d="M60.3675 31.4663V42.3527C56.1078 39.5369 50.7884 37.3705 44.5053 37.3705C37.9262 37.3705 32.4067 39.7432 28.052 42.7506C27.126 43.3888 26.0047 43.6814 24.8845 43.5774C23.7642 43.4733 22.7162 42.9792 21.9239 42.1814C21.4804 41.7376 21.1289 41.2109 20.8895 40.6313C20.6501 40.0517 20.5274 39.4307 20.5286 38.8037C20.526 38.0188 20.7176 37.2453 21.0864 36.5521C21.4551 35.8589 21.9896 35.2674 22.6423 34.8301C28.0161 31.2213 35.3772 27.9883 44.5053 27.9883C49.9823 27.9885 55.3941 29.1751 60.3675 31.4663Z" fill="#9EE86F"/>
<path d="M44.5043 13.9158C49.892 13.9065 55.2467 14.756 60.3664 16.4322V26.3892C55.3289 24.3441 49.942 23.2943 44.5043 23.298C32.9009 23.298 23.9139 27.9735 17.9241 32.5135C17.0391 33.1859 15.9398 33.5143 14.8305 33.4378C13.7213 33.3612 12.6776 32.8848 11.8937 32.0972C11.4705 31.6736 11.1351 31.1709 10.9066 30.6177C10.6781 30.0645 10.561 29.4718 10.562 28.8734C10.5609 28.183 10.716 27.5014 11.0157 26.8793C11.3155 26.2572 11.7521 25.7109 12.293 25.2811C18.3797 20.4205 29.3633 13.9112 44.5043 13.9112V13.9158Z" fill="#9EE86F"/>
<path d="M77.114 32.0973C76.4401 32.7775 75.569 33.2286 74.624 33.3868V23.7025C75.3747 24.2422 76.071 24.7728 76.7128 25.2858C77.2172 25.6867 77.6313 26.1892 77.9282 26.7607C78.225 27.3321 78.398 27.9596 78.4357 28.6023C78.4735 29.245 78.3752 29.8884 78.1473 30.4906C77.9194 31.0928 77.567 31.6402 77.1131 32.0973H77.114Z" fill="#9EE86F"/>
<path d="M87.0454 22.108L87.0057 22.1495C86.22 22.9382 85.1669 23.4042 84.054 23.4553C82.9412 23.5065 81.8496 23.1391 80.9947 22.4258C78.979 20.7542 76.8507 19.2228 74.625 17.8424V13.097C74.623 11.221 73.876 9.42233 72.5478 8.09578C71.2196 6.76923 69.4188 6.02312 67.5405 6.02117H67.4483C65.8438 6.023 64.2874 6.56789 63.0329 7.5669C61.7784 8.56592 60.8999 9.96009 60.5408 11.5219C55.3321 9.99222 49.9299 9.22009 44.5007 9.22932C26.7941 9.22932 14.3064 17.1931 8.00946 22.4258C7.1544 23.1392 6.06265 23.5066 4.94968 23.4554C3.83671 23.4042 2.78335 22.9383 1.9975 22.1495L1.95785 22.108C1.52929 21.6771 1.19379 21.1629 0.972121 20.5973C0.750452 20.0317 0.64733 19.4266 0.669113 18.8196C0.690896 18.2126 0.837126 17.6165 1.09877 17.0682C1.36041 16.5199 1.7319 16.031 2.19026 15.6318C8.41154 10.214 22.9909 0 44.5007 0C66.0105 0 80.5889 10.214 86.8102 15.6318C87.2685 16.0311 87.6399 16.52 87.9015 17.0683C88.1631 17.6167 88.3092 18.2128 88.3309 18.8198C88.3526 19.4268 88.2494 20.0318 88.0276 20.5974C87.8059 21.163 87.4703 21.6771 87.0417 22.108H87.0454Z" fill="#9EE86F"/>
<path d="M56.7497 52.5767C55.2816 54.0505 53.0129 54.4373 51.1694 53.4674C49.1599 52.41 46.9346 51.7561 44.5036 51.7561C42.0726 51.7561 39.8482 52.41 37.8387 53.4674C35.9943 54.4373 33.7266 54.0533 32.2584 52.5767C31.7349 52.0495 31.3414 51.4078 31.1088 50.7026C30.8763 49.9973 30.8111 49.2476 30.9184 48.5129C31.0257 47.7781 31.3026 47.0783 31.7273 46.4688C32.1519 45.8593 32.7126 45.3567 33.365 45.0008C36.5568 43.2507 40.2817 42.0625 44.5045 42.0625C48.7274 42.0625 52.4531 43.2599 55.6449 45.0008C56.2974 45.3567 56.8581 45.8593 57.2827 46.4688C57.7073 47.0783 57.9842 47.7781 58.0916 48.5129C58.1989 49.2476 58.1337 49.9973 57.9011 50.7026C57.6686 51.4078 57.275 52.0495 56.7516 52.5767H56.7497Z" fill="#9EE86F"/>
<path d="M49.8266 61.6845C49.8266 62.3826 49.6889 63.0739 49.4213 63.7189C49.1538 64.3638 48.7617 64.9499 48.2674 65.4435C47.7731 65.9371 47.1863 66.3286 46.5405 66.5957C45.8947 66.8628 45.2025 67.0002 44.5035 67.0001C43.092 67.0001 41.7383 66.44 40.7402 65.4432C39.7421 64.4463 39.1814 63.0942 39.1814 61.6845C39.1814 60.2746 39.7421 58.9224 40.7401 57.9254C41.7382 56.9284 43.0919 56.3682 44.5035 56.3679C45.9153 56.3679 47.2692 56.9281 48.2675 57.9251C49.2657 58.9221 49.8266 60.2744 49.8266 61.6845Z" fill="#9EE86F"/>
<path d="M71.7698 62.4324C71.7695 63.5643 71.3192 64.6497 70.5177 65.45C69.7163 66.2502 68.6295 66.6998 67.4962 66.6998C66.363 66.6998 65.2761 66.2502 64.4747 65.45C63.6733 64.6497 63.2229 63.5643 63.2227 62.4324C63.2227 61.3004 63.6729 60.2147 64.4743 59.4142C65.2758 58.6138 66.3628 58.1641 67.4962 58.1641C68.6296 58.1641 69.7166 58.6138 70.5181 59.4142C71.3195 60.2147 71.7698 61.3004 71.7698 62.4324Z" fill="#9EE86F"/>
<path d="M67.5413 52.7609H67.4491C66.8766 52.761 66.3096 52.6485 65.7806 52.4298C65.2516 52.211 64.7709 51.8903 64.366 51.486C63.9611 51.0817 63.6399 50.6017 63.4208 50.0733C63.2017 49.545 63.0889 48.9788 63.0889 48.4069V13.0933C63.0889 12.5214 63.2017 11.9551 63.4208 11.4267C63.6399 10.8983 63.9611 10.4183 64.366 10.0139C64.7708 9.60948 65.2515 9.28869 65.7805 9.06984C66.3095 8.85098 66.8765 8.73834 67.4491 8.73834H67.5413C68.6976 8.73859 69.8064 9.19751 70.6239 10.0142C71.4414 10.8309 71.9007 11.9384 71.9007 13.0933V48.4106C71.8997 49.5647 71.44 50.6712 70.6225 51.487C69.8051 52.3027 68.6969 52.7609 67.5413 52.7609Z" fill="#9EE86F"/>
</svg>
